<?xml version="1.0" encoding="UTF-8" standalone="no"?>
<!-- Created with Inkscape (http://www.inkscape.org/) -->

<svg
   xmlns:dc="http://purl.org/dc/elements/1.1/"
   xmlns:cc="http://creativecommons.org/ns#"
   xmlns:rdf="http://www.w3.org/1999/02/22-rdf-syntax-ns#"
   xmlns:svg="http://www.w3.org/2000/svg"
   xmlns="http://www.w3.org/2000/svg"
   xmlns:sodipodi="http://sodipodi.sourceforge.net/DTD/sodipodi-0.dtd"
   xmlns:inkscape="http://www.inkscape.org/namespaces/inkscape"
   width="110mm"
   height="165mm"
   viewBox="0 0 110 165"
   version="1.1"
   id="svg1187"
   inkscape:version="0.92.4 (5da689c313, 2019-01-14)"
   sodipodi:docname="logos-lkft-solarized.svg">
  <defs
     id="defs1181" />
  <sodipodi:namedview
     id="base"
     pagecolor="#ffffff"
     bordercolor="#666666"
     borderopacity="1.0"
     inkscape:pageopacity="0.0"
     inkscape:pageshadow="2"
     inkscape:zoom="3.01625"
     inkscape:cx="207.87402"
     inkscape:cy="311.81102"
     inkscape:document-units="mm"
     inkscape:current-layer="layer1"
     showgrid="false"
     inkscape:window-width="3840"
     inkscape:window-height="2055"
     inkscape:window-x="1920"
     inkscape:window-y="28"
     inkscape:window-maximized="1" />
  <metadata
     id="metadata1184">
    <rdf:RDF>
      <cc:Work
         rdf:about="">
        <dc:format>image/svg+xml</dc:format>
        <dc:type
           rdf:resource="http://purl.org/dc/dcmitype/StillImage" />
        <dc:title></dc:title>
      </cc:Work>
    </rdf:RDF>
  </metadata>
  <g
     inkscape:label="Layer 1"
     inkscape:groupmode="layer"
     id="layer1"
     transform="translate(0,-132)">
    <g
       id="g1896">
      <rect
         y="242"
         x="0"
         height="55"
         width="55"
         id="rect1804"
         style="opacity:1;vector-effect:none;fill:#eee8d5;fill-opacity:1;stroke:none;stroke-width:0.1;stroke-linecap:butt;stroke-linejoin:miter;stroke-miterlimit:4;stroke-dasharray:none;stroke-dashoffset:0;stroke-opacity:1" />
      <path
         d="m 19.440612,272.41294 v 1.59569 H 14.25244 v -8.60991 h 1.997399 v 7.01422 z"
         style="fill:#93a1a1;fill-opacity:1;fill-rule:nonzero;stroke:none;stroke-width:0.62089193"
         id="path913"
         inkscape:connector-curvature="0" />
      <path
         d="m 22.127582,268.88521 h 0.319142 c 0.295541,0 0.508502,-0.0926 0.638267,-0.27815 l 1.938439,-2.81264 c 0.114224,-0.1496 0.237178,-0.25333 0.368809,-0.31044 0.132177,-0.0565 0.296773,-0.085 0.493595,-0.085 h 1.737269 l -2.552488,3.4801 c -0.181298,0.24028 -0.376272,0.41351 -0.585502,0.52031 0.150305,0.0553 0.285615,0.13218 0.407918,0.23035 0.12232,0.098 0.236562,0.22662 0.342744,0.3837 l 2.600289,3.99483 h -1.784437 c -0.114929,0 -0.211729,-0.007 -0.292443,-0.0236 -0.08131,-0.0158 -0.150833,-0.0391 -0.209864,-0.0708 -0.05896,-0.0317 -0.110528,-0.0702 -0.154001,-0.11493 -0.04347,-0.0459 -0.08448,-0.098 -0.124256,-0.157 l -1.949597,-2.99581 c -0.07146,-0.11053 -0.160865,-0.18813 -0.268859,-0.23345 -0.108593,-0.0454 -0.255184,-0.0678 -0.440829,-0.0678 h -0.484284 v 3.66326 h -1.997417 v -8.60929 h 1.997417 z"
         style="fill:#93a1a1;fill-opacity:1;fill-rule:nonzero;stroke:none;stroke-width:0.62089193"
         id="path917"
         inkscape:connector-curvature="0" />
      <path
         d="m 30.48926,266.93493 v 2.18058 h 2.943034 v 1.54229 H 30.48926 v 3.35095 h -2.009209 v -8.6099 h 5.542708 v 1.53608 z"
         style="fill:#93a1a1;fill-opacity:1;fill-rule:nonzero;stroke:none;stroke-width:0.62089193"
         id="path921"
         inkscape:connector-curvature="0" />
      <path
         d="M 41.362382,266.98225 H 38.93966 v 7.02601 h -1.997416 v -7.02601 h -2.422723 v -1.58328 h 6.842861 z"
         style="fill:#93a1a1;fill-opacity:1;fill-rule:nonzero;stroke:none;stroke-width:0.62089193"
         id="path925"
         inkscape:connector-curvature="0" />
      <path
         inkscape:connector-curvature="0"
         id="path935"
         style="fill:#859900;fill-opacity:0.29803922;fill-rule:nonzero;stroke:none;stroke-width:0.62089193"
         d="m 52.422083,269.75839 c -0.09381,7.85178 -3.826558,14.84241 -9.590921,19.35754 h -15.36646 c 10.758194,0 19.496004,-8.63722 19.656816,-19.35754 z" />
      <path
         d="m 27.464826,244.49404 c -13.765169,0 -24.9648262,11.19593 -24.9648262,24.9611 0,13.7658 11.1996572,24.96482 24.9648262,24.96482 0.108592,0 0.212978,0 0.321624,-0.004 h 15.979893 v -5.30058 h -0.935057 -15.36646 c -10.859395,0 -19.6605471,-8.80177 -19.6605471,-19.66055 0,-10.85878 8.8011521,-19.66054 19.6605471,-19.66054 10.858778,0 19.660546,8.80176 19.660546,19.66054 v 0.0752 h 5.300548 v -0.0752 c 0,-13.76517 -11.195908,-24.96109 -24.961094,-24.96109"
         style="fill:#859900;fill-opacity:1;fill-rule:nonzero;stroke:none;stroke-width:0.62089193"
         id="path945"
         inkscape:connector-curvature="0" />
      <path
         d="m 52.499999,291.70846 -4.835501,-2.79153 v 5.58306 z"
         style="fill:#859900;fill-opacity:1;fill-rule:nonzero;stroke:none;stroke-width:0.62089193"
         id="path949"
         inkscape:connector-curvature="0" />
    </g>
    <g
       id="g1886">
      <rect
         y="242"
         x="55"
         height="55.000004"
         width="55.000004"
         id="rect1804-3"
         style="opacity:1;vector-effect:none;fill:#073642;fill-opacity:1;stroke:none;stroke-width:0.1;stroke-linecap:butt;stroke-linejoin:miter;stroke-miterlimit:4;stroke-dasharray:none;stroke-dashoffset:0;stroke-opacity:1" />
      <path
         d="m 74.440671,272.41294 v 1.5957 h -5.188173 v -8.60991 h 1.997399 v 7.01421 z"
         style="fill:#93a1a1;fill-opacity:1;fill-rule:nonzero;stroke:none;stroke-width:0.62089211"
         id="path1005"
         inkscape:connector-curvature="0" />
      <path
         d="m 77.127694,268.88522 h 0.319143 c 0.295541,0 0.508519,-0.0926 0.638285,-0.27816 l 1.938421,-2.81263 c 0.113697,-0.1496 0.237179,-0.25334 0.36881,-0.31045 0.132177,-0.0565 0.296791,-0.085 0.493612,-0.085 h 1.737253 l -2.552489,3.4801 c -0.181298,0.24028 -0.376255,0.41352 -0.585502,0.52032 0.150305,0.0553 0.285614,0.13217 0.407917,0.23035 0.122321,0.098 0.236563,0.22661 0.342744,0.38369 l 2.600291,3.99484 h -1.784438 c -0.114929,0 -0.211729,-0.007 -0.293059,-0.0236 -0.08078,-0.0158 -0.150305,-0.0391 -0.209864,-0.0708 -0.05843,-0.0317 -0.109825,-0.0702 -0.153297,-0.11493 -0.04347,-0.0459 -0.08501,-0.098 -0.12408,-0.15699 l -1.949598,-2.99582 c -0.07146,-0.11053 -0.160865,-0.18812 -0.268859,-0.23344 -0.108593,-0.0454 -0.2558,-0.0678 -0.44083,-0.0678 h -0.484301 v 3.66326 h -1.9974 v -8.6093 h 1.9974 z"
         style="fill:#93a1a1;fill-opacity:1;fill-rule:nonzero;stroke:none;stroke-width:0.62089211"
         id="path1009"
         inkscape:connector-curvature="0" />
      <path
         d="m 85.489252,266.93493 v 2.18058 h 2.943035 v 1.5423 h -2.943035 v 3.35095 h -2.009209 v -8.60991 h 5.542709 v 1.53608 z"
         style="fill:#93a1a1;fill-opacity:1;fill-rule:nonzero;stroke:none;stroke-width:0.62089211"
         id="path1013"
         inkscape:connector-curvature="0" />
      <path
         d="m 96.362326,266.98226 h -2.422724 v 7.02601 h -1.997417 v -7.02601 h -2.422723 v -1.58329 h 6.842864 z"
         style="fill:#93a1a1;fill-opacity:1;fill-rule:nonzero;stroke:none;stroke-width:0.62089211"
         id="path1017"
         inkscape:connector-curvature="0" />
      <path
         d="m 107.42208,269.75839 c -0.0938,7.85179 -3.82656,14.84242 -9.590921,19.35755 H 82.464694 c 10.758197,0 19.496026,-8.63723 19.656836,-19.35755 z"
         style="fill:#859900;fill-opacity:0.29803922;fill-rule:nonzero;stroke:none;stroke-width:0.62089211"
         id="path1021"
         inkscape:connector-curvature="0" />
      <path
         d="m 82.464835,244.49404 c -13.765192,0 -24.964835,11.19593 -24.964835,24.9611 0,13.76581 11.199643,24.96484 24.964835,24.96484 0.108592,0 0.212961,0 0.321606,-0.004 h 15.979916 v -5.30059 H 97.831282 82.464835 c -10.859416,0 -19.660554,-8.80177 -19.660554,-19.66055 0,-10.85878 8.801138,-19.66056 19.660554,-19.66056 10.858782,0 19.660535,8.80178 19.660535,19.66056 v 0.0752 h 5.30057 v -0.0752 c 0,-13.76518 -11.195932,-24.9611 -24.961105,-24.9611"
         style="fill:#859900;fill-opacity:1;fill-rule:nonzero;stroke:none;stroke-width:0.62089211"
         id="path1025"
         inkscape:connector-curvature="0" />
      <path
         d="m 107.5,291.70847 -4.8355,-2.79153 V 294.5 Z"
         style="fill:#859900;fill-opacity:1;fill-rule:nonzero;stroke:none;stroke-width:0.62089211"
         id="path1029"
         inkscape:connector-curvature="0" />
    </g>
    <g
       id="g2135">
      <rect
         y="187"
         x="0"
         height="55"
         width="55"
         id="rect1804-7"
         style="opacity:1;vector-effect:none;fill:#eee8d5;fill-opacity:1;stroke:none;stroke-width:0.1;stroke-linecap:butt;stroke-linejoin:miter;stroke-miterlimit:4;stroke-dasharray:none;stroke-dashoffset:0;stroke-opacity:1" />
      <path
         d="m 19.440612,217.41294 v 1.59569 H 14.25244 v -8.60991 h 1.997399 v 7.01422 z"
         style="fill:#93a1a1;fill-opacity:1;fill-rule:nonzero;stroke:none;stroke-width:0.62089193"
         id="path913-5"
         inkscape:connector-curvature="0" />
      <path
         d="m 22.127582,213.88521 h 0.319142 c 0.295541,0 0.508502,-0.0926 0.638267,-0.27815 l 1.938439,-2.81264 c 0.114224,-0.1496 0.237178,-0.25333 0.368809,-0.31044 0.132177,-0.0565 0.296773,-0.085 0.493595,-0.085 h 1.737269 l -2.552488,3.4801 c -0.181298,0.24028 -0.376272,0.41351 -0.585502,0.52031 0.150305,0.0553 0.285615,0.13218 0.407918,0.23035 0.12232,0.098 0.236562,0.22662 0.342744,0.3837 l 2.600289,3.99483 h -1.784437 c -0.114929,0 -0.211729,-0.007 -0.292443,-0.0236 -0.08131,-0.0158 -0.150833,-0.0391 -0.209864,-0.0708 -0.05896,-0.0317 -0.110528,-0.0702 -0.154001,-0.11493 -0.04347,-0.0459 -0.08448,-0.098 -0.124256,-0.157 l -1.949597,-2.99581 c -0.07146,-0.11053 -0.160865,-0.18813 -0.268859,-0.23345 -0.108593,-0.0454 -0.255184,-0.0678 -0.440829,-0.0678 h -0.484284 v 3.66326 h -1.997417 v -8.60929 h 1.997417 z"
         style="fill:#93a1a1;fill-opacity:1;fill-rule:nonzero;stroke:none;stroke-width:0.62089193"
         id="path917-3"
         inkscape:connector-curvature="0" />
      <path
         d="m 30.48926,211.93493 v 2.18058 h 2.943034 v 1.54229 H 30.48926 v 3.35095 h -2.009209 v -8.6099 h 5.542708 v 1.53608 z"
         style="fill:#93a1a1;fill-opacity:1;fill-rule:nonzero;stroke:none;stroke-width:0.62089193"
         id="path921-5"
         inkscape:connector-curvature="0" />
      <path
         d="M 41.362382,211.98225 H 38.93966 v 7.02601 h -1.997416 v -7.02601 h -2.422723 v -1.58328 h 6.842861 z"
         style="fill:#93a1a1;fill-opacity:1;fill-rule:nonzero;stroke:none;stroke-width:0.62089193"
         id="path925-6"
         inkscape:connector-curvature="0" />
      <path
         inkscape:connector-curvature="0"
         id="path935-2"
         style="fill:#539800;fill-opacity:0.29803922;fill-rule:nonzero;stroke:none;stroke-width:0.62089193"
         d="m 52.422083,214.75839 c -0.09381,7.85178 -3.826558,14.84241 -9.590921,19.35754 h -15.36646 c 10.758194,0 19.496004,-8.63722 19.656816,-19.35754 z" />
      <path
         d="m 27.464826,189.49404 c -13.765169,0 -24.9648262,11.19593 -24.9648262,24.9611 0,13.7658 11.1996572,24.96482 24.9648262,24.96482 0.108592,0 0.212978,0 0.321624,-0.004 h 15.979893 v -5.30058 h -0.935057 -15.36646 c -10.859395,0 -19.6605471,-8.80177 -19.6605471,-19.66055 0,-10.85878 8.8011521,-19.66054 19.6605471,-19.66054 10.858778,0 19.660546,8.80176 19.660546,19.66054 v 0.0752 h 5.300548 v -0.0752 c 0,-13.76517 -11.195908,-24.96109 -24.961094,-24.96109"
         style="fill:#539800;fill-opacity:1;fill-rule:nonzero;stroke:none;stroke-width:0.62089193"
         id="path945-9"
         inkscape:connector-curvature="0" />
      <path
         d="m 52.499999,236.70846 -4.835501,-2.79153 v 5.58306 z"
         style="fill:#539800;fill-opacity:1;fill-rule:nonzero;stroke:none;stroke-width:0.62089193"
         id="path949-1"
         inkscape:connector-curvature="0" />
    </g>
    <g
       id="g2145">
      <rect
         y="187"
         x="55"
         height="55.000004"
         width="55.000004"
         id="rect1804-3-7"
         style="opacity:1;vector-effect:none;fill:#073642;fill-opacity:1;stroke:none;stroke-width:0.1;stroke-linecap:butt;stroke-linejoin:miter;stroke-miterlimit:4;stroke-dasharray:none;stroke-dashoffset:0;stroke-opacity:1" />
      <path
         d="m 74.440671,217.41294 v 1.5957 h -5.188173 v -8.60991 h 1.997399 v 7.01421 z"
         style="fill:#93a1a1;fill-opacity:1;fill-rule:nonzero;stroke:none;stroke-width:0.62089211"
         id="path1005-0"
         inkscape:connector-curvature="0" />
      <path
         d="m 77.127694,213.88522 h 0.319143 c 0.295541,0 0.508519,-0.0926 0.638285,-0.27816 l 1.938421,-2.81263 c 0.113697,-0.1496 0.237179,-0.25334 0.36881,-0.31045 0.132177,-0.0565 0.296791,-0.085 0.493612,-0.085 h 1.737253 l -2.552489,3.4801 c -0.181298,0.24028 -0.376255,0.41352 -0.585502,0.52032 0.150305,0.0553 0.285614,0.13217 0.407917,0.23035 0.122321,0.098 0.236563,0.22661 0.342744,0.38369 l 2.600291,3.99484 h -1.784438 c -0.114929,0 -0.211729,-0.007 -0.293059,-0.0236 -0.08078,-0.0158 -0.150305,-0.0391 -0.209864,-0.0708 -0.05843,-0.0317 -0.109825,-0.0702 -0.153297,-0.11493 -0.04347,-0.0459 -0.08501,-0.098 -0.12408,-0.15699 l -1.949598,-2.99582 c -0.07146,-0.11053 -0.160865,-0.18812 -0.268859,-0.23344 -0.108593,-0.0454 -0.2558,-0.0678 -0.44083,-0.0678 h -0.484301 v 3.66326 h -1.9974 v -8.6093 h 1.9974 z"
         style="fill:#93a1a1;fill-opacity:1;fill-rule:nonzero;stroke:none;stroke-width:0.62089211"
         id="path1009-9"
         inkscape:connector-curvature="0" />
      <path
         d="m 85.489252,211.93493 v 2.18058 h 2.943035 v 1.5423 h -2.943035 v 3.35095 h -2.009209 v -8.60991 h 5.542709 v 1.53608 z"
         style="fill:#93a1a1;fill-opacity:1;fill-rule:nonzero;stroke:none;stroke-width:0.62089211"
         id="path1013-3"
         inkscape:connector-curvature="0" />
      <path
         d="m 96.362326,211.98226 h -2.422724 v 7.02601 h -1.997417 v -7.02601 h -2.422723 v -1.58329 h 6.842864 z"
         style="fill:#93a1a1;fill-opacity:1;fill-rule:nonzero;stroke:none;stroke-width:0.62089211"
         id="path1017-6"
         inkscape:connector-curvature="0" />
      <path
         d="m 107.42208,214.75839 c -0.0938,7.85179 -3.82656,14.84242 -9.590921,19.35755 H 82.464694 c 10.758197,0 19.496026,-8.63723 19.656836,-19.35755 z"
         style="fill:#539800;fill-opacity:0.29803922;fill-rule:nonzero;stroke:none;stroke-width:0.62089211"
         id="path1021-0"
         inkscape:connector-curvature="0" />
      <path
         d="m 82.464835,189.49404 c -13.765192,0 -24.964835,11.19593 -24.964835,24.9611 0,13.76581 11.199643,24.96484 24.964835,24.96484 0.108592,0 0.212961,0 0.321606,-0.004 h 15.979916 v -5.30059 H 97.831282 82.464835 c -10.859416,0 -19.660554,-8.80177 -19.660554,-19.66055 0,-10.85878 8.801138,-19.66056 19.660554,-19.66056 10.858782,0 19.660535,8.80178 19.660535,19.66056 v 0.0752 h 5.30057 v -0.0752 c 0,-13.76518 -11.195932,-24.9611 -24.961105,-24.9611"
         style="fill:#539800;fill-opacity:1;fill-rule:nonzero;stroke:none;stroke-width:0.62089211"
         id="path1025-6"
         inkscape:connector-curvature="0" />
      <path
         d="m 107.5,236.70847 -4.8355,-2.79153 V 239.5 Z"
         style="fill:#539800;fill-opacity:1;fill-rule:nonzero;stroke:none;stroke-width:0.62089211"
         id="path1029-2"
         inkscape:connector-curvature="0" />
    </g>
    <g
       id="g2165">
      <rect
         y="132"
         x="0"
         height="55"
         width="55"
         id="rect1804-1"
         style="opacity:1;vector-effect:none;fill:#fcfbf8;fill-opacity:1;stroke:none;stroke-width:0.1;stroke-linecap:butt;stroke-linejoin:miter;stroke-miterlimit:4;stroke-dasharray:none;stroke-dashoffset:0;stroke-opacity:1" />
      <path
         d="m 19.440612,162.41294 v 1.59569 H 14.25244 v -8.60991 h 1.997399 v 7.01422 z"
         style="fill:#0b0d0d;fill-opacity:1;fill-rule:nonzero;stroke:none;stroke-width:0.62089193"
         id="path913-8"
         inkscape:connector-curvature="0" />
      <path
         d="m 22.127582,158.88521 h 0.319142 c 0.295541,0 0.508502,-0.0926 0.638267,-0.27815 l 1.938439,-2.81264 c 0.114224,-0.1496 0.237178,-0.25333 0.368809,-0.31044 0.132177,-0.0565 0.296773,-0.085 0.493595,-0.085 h 1.737269 l -2.552488,3.4801 c -0.181298,0.24028 -0.376272,0.41351 -0.585502,0.52031 0.150305,0.0553 0.285615,0.13218 0.407918,0.23035 0.12232,0.098 0.236562,0.22662 0.342744,0.3837 l 2.600289,3.99483 h -1.784437 c -0.114929,0 -0.211729,-0.007 -0.292443,-0.0236 -0.08131,-0.0158 -0.150833,-0.0391 -0.209864,-0.0708 -0.05896,-0.0317 -0.110528,-0.0702 -0.154001,-0.11493 -0.04347,-0.0459 -0.08448,-0.098 -0.124256,-0.157 l -1.949597,-2.99581 c -0.07146,-0.11053 -0.160865,-0.18813 -0.268859,-0.23345 -0.108593,-0.0454 -0.255184,-0.0678 -0.440829,-0.0678 h -0.484284 v 3.66326 h -1.997417 v -8.60929 h 1.997417 z"
         style="fill:#0b0d0d;fill-opacity:1;fill-rule:nonzero;stroke:none;stroke-width:0.62089193"
         id="path917-7"
         inkscape:connector-curvature="0" />
      <path
         d="m 30.48926,156.93493 v 2.18058 h 2.943034 v 1.54229 H 30.48926 v 3.35095 h -2.009209 v -8.6099 h 5.542708 v 1.53608 z"
         style="fill:#0b0d0d;fill-opacity:1;fill-rule:nonzero;stroke:none;stroke-width:0.62089193"
         id="path921-9"
         inkscape:connector-curvature="0" />
      <path
         d="M 41.362382,156.98225 H 38.93966 v 7.02601 h -1.997416 v -7.02601 h -2.422723 v -1.58328 h 6.842861 z"
         style="fill:#0b0d0d;fill-opacity:1;fill-rule:nonzero;stroke:none;stroke-width:0.62089193"
         id="path925-2"
         inkscape:connector-curvature="0" />
      <path
         inkscape:connector-curvature="0"
         id="path935-0"
         style="fill:#539800;fill-opacity:0.29803923;fill-rule:nonzero;stroke:none;stroke-width:0.62089193"
         d="m 52.422083,159.75839 c -0.09381,7.85178 -3.826558,14.84241 -9.590921,19.35754 h -15.36646 c 10.758194,0 19.496004,-8.63722 19.656816,-19.35754 z" />
      <path
         d="m 27.464826,134.49404 c -13.765169,0 -24.9648262,11.19593 -24.9648262,24.9611 0,13.7658 11.1996572,24.96482 24.9648262,24.96482 0.108592,0 0.212978,0 0.321624,-0.004 h 15.979893 v -5.30058 h -0.935057 -15.36646 c -10.859395,0 -19.6605471,-8.80177 -19.6605471,-19.66055 0,-10.85878 8.8011521,-19.66054 19.6605471,-19.66054 10.858778,0 19.660546,8.80176 19.660546,19.66054 v 0.0752 h 5.300548 v -0.0752 c 0,-13.76517 -11.195908,-24.96109 -24.961094,-24.96109"
         style="fill:#539800;fill-opacity:1;fill-rule:nonzero;stroke:none;stroke-width:0.62089193"
         id="path945-2"
         inkscape:connector-curvature="0" />
      <path
         d="m 52.499999,181.70846 -4.835501,-2.79153 v 5.58306 z"
         style="fill:#539800;fill-opacity:1;fill-rule:nonzero;stroke:none;stroke-width:0.62089193"
         id="path949-3"
         inkscape:connector-curvature="0" />
    </g>
    <g
       id="g2155">
      <rect
         y="132"
         x="55"
         height="55.000004"
         width="55.000004"
         id="rect1804-3-5"
         style="opacity:1;vector-effect:none;fill:#000000;fill-opacity:1;stroke:none;stroke-width:0.1;stroke-linecap:butt;stroke-linejoin:miter;stroke-miterlimit:4;stroke-dasharray:none;stroke-dashoffset:0;stroke-opacity:1" />
      <path
         d="m 74.440671,162.41294 v 1.5957 h -5.188173 v -8.60991 h 1.997399 v 7.01421 z"
         style="fill:#ffffff;fill-opacity:1;fill-rule:nonzero;stroke:none;stroke-width:0.62089211"
         id="path1005-9"
         inkscape:connector-curvature="0" />
      <path
         d="m 77.127694,158.88522 h 0.319143 c 0.295541,0 0.508519,-0.0926 0.638285,-0.27816 l 1.938421,-2.81263 c 0.113697,-0.1496 0.237179,-0.25334 0.36881,-0.31045 0.132177,-0.0565 0.296791,-0.085 0.493612,-0.085 h 1.737253 l -2.552489,3.4801 c -0.181298,0.24028 -0.376255,0.41352 -0.585502,0.52032 0.150305,0.0553 0.285614,0.13217 0.407917,0.23035 0.122321,0.098 0.236563,0.22661 0.342744,0.38369 l 2.600291,3.99484 h -1.784438 c -0.114929,0 -0.211729,-0.007 -0.293059,-0.0236 -0.08078,-0.0158 -0.150305,-0.0391 -0.209864,-0.0708 -0.05843,-0.0317 -0.109825,-0.0702 -0.153297,-0.11493 -0.04347,-0.0459 -0.08501,-0.098 -0.12408,-0.15699 l -1.949598,-2.99582 c -0.07146,-0.11053 -0.160865,-0.18812 -0.268859,-0.23344 -0.108593,-0.0454 -0.2558,-0.0678 -0.44083,-0.0678 h -0.484301 v 3.66326 h -1.9974 v -8.6093 h 1.9974 z"
         style="fill:#ffffff;fill-opacity:1;fill-rule:nonzero;stroke:none;stroke-width:0.62089211"
         id="path1009-2"
         inkscape:connector-curvature="0" />
      <path
         d="m 85.489252,156.93493 v 2.18058 h 2.943035 v 1.5423 h -2.943035 v 3.35095 h -2.009209 v -8.60991 h 5.542709 v 1.53608 z"
         style="fill:#ffffff;fill-opacity:1;fill-rule:nonzero;stroke:none;stroke-width:0.62089211"
         id="path1013-2"
         inkscape:connector-curvature="0" />
      <path
         d="m 96.362326,156.98226 h -2.422724 v 7.02601 h -1.997417 v -7.02601 h -2.422723 v -1.58329 h 6.842864 z"
         style="fill:#ffffff;fill-opacity:1;fill-rule:nonzero;stroke:none;stroke-width:0.62089211"
         id="path1017-8"
         inkscape:connector-curvature="0" />
      <path
         d="m 107.42208,159.75839 c -0.0938,7.85179 -3.82656,14.84242 -9.590921,19.35755 H 82.464694 c 10.758197,0 19.496026,-8.63723 19.656836,-19.35755 z"
         style="fill:#539800;fill-opacity:0.29803923;fill-rule:nonzero;stroke:none;stroke-width:0.62089211"
         id="path1021-9"
         inkscape:connector-curvature="0" />
      <path
         d="m 82.464835,134.49404 c -13.765192,0 -24.964835,11.19593 -24.964835,24.9611 0,13.76581 11.199643,24.96484 24.964835,24.96484 0.108592,0 0.212961,0 0.321606,-0.004 h 15.979916 v -5.30059 H 97.831282 82.464835 c -10.859416,0 -19.660554,-8.80177 -19.660554,-19.66055 0,-10.85878 8.801138,-19.66056 19.660554,-19.66056 10.858782,0 19.660535,8.80178 19.660535,19.66056 v 0.0752 h 5.30057 v -0.0752 c 0,-13.76518 -11.195932,-24.9611 -24.961105,-24.9611"
         style="fill:#539800;fill-opacity:1;fill-rule:nonzero;stroke:none;stroke-width:0.62089211"
         id="path1025-7"
         inkscape:connector-curvature="0" />
      <path
         d="m 107.5,181.70847 -4.8355,-2.79153 V 184.5 Z"
         style="fill:#539800;fill-opacity:1;fill-rule:nonzero;stroke:none;stroke-width:0.62089211"
         id="path1029-3"
         inkscape:connector-curvature="0" />
    </g>
  </g>
</svg>
